<svg width="244" height="195" viewBox="0 0 244 195" fill="none" xmlns="http://www.w3.org/2000/svg">
<g clip-path="url(#clip0_84_12)">
<path d="M237.9 134.062H231.8V92.8916C231.8 88.0547 229.856 83.4082 226.424 79.9805L188.337 41.9326C184.906 38.5049 180.255 36.5625 175.413 36.5625H158.6V18.2812C158.6 8.18848 150.403 0 140.3 0H18.3C8.19687 0 0 8.18848 0 18.2812V140.156C0 150.249 8.19687 158.438 18.3 158.438H24.4C24.4 178.623 40.7937 195 61 195C81.2062 195 97.6 178.623 97.6 158.438H146.4C146.4 178.623 162.794 195 183 195C203.206 195 219.6 178.623 219.6 158.438H237.9C241.255 158.438 244 155.695 244 152.344V140.156C244 136.805 241.255 134.062 237.9 134.062ZM61 176.719C50.8969 176.719 42.7 168.53 42.7 158.438C42.7 148.345 50.8969 140.156 61 140.156C71.1031 140.156 79.3 148.345 79.3 158.438C79.3 168.53 71.1031 176.719 61 176.719ZM115.9 82.2656C115.9 83.9414 114.527 85.3125 112.85 85.3125H91.5V106.641C91.5 108.316 90.1275 109.688 88.45 109.688H70.15C68.4725 109.688 67.1 108.316 67.1 106.641V85.3125H45.75C44.0725 85.3125 42.7 83.9414 42.7 82.2656V63.9844C42.7 62.3086 44.0725 60.9375 45.75 60.9375H67.1V39.6094C67.1 37.9336 68.4725 36.5625 70.15 36.5625H88.45C90.1275 36.5625 91.5 37.9336 91.5 39.6094V60.9375H112.85C114.527 60.9375 115.9 62.3086 115.9 63.9844V82.2656ZM183 176.719C172.897 176.719 164.7 168.53 164.7 158.438C164.7 148.345 172.897 140.156 183 140.156C193.103 140.156 201.3 148.345 201.3 158.438C201.3 168.53 193.103 176.719 183 176.719ZM213.5 97.5H158.6V54.8438H175.413L213.5 92.8916V97.5Z" fill="#222222"/>
</g>
<defs>
<clipPath id="clip0_84_12">
<rect width="244" height="195" fill="white"/>
</clipPath>
</defs>
</svg>
