<svg width="30" height="30" viewBox="0 0 30 30" fill="none" xmlns="http://www.w3.org/2000/svg">
<path fill-rule="evenodd" clip-rule="evenodd" d="M23.4375 28.125C23.1888 28.125 22.9504 28.0262 22.7746 27.8504C22.5987 27.6746 22.5 27.4361 22.5 27.1875V2.8125C22.5 2.56386 22.5987 2.3254 22.7746 2.14959C22.9504 1.97377 23.1888 1.875 23.4375 1.875C23.6861 1.875 23.9246 1.97377 24.1004 2.14959C24.2762 2.3254 24.375 2.56386 24.375 2.8125V27.1875C24.375 27.4361 24.2762 27.6746 24.1004 27.8504C23.9246 28.0262 23.6861 28.125 23.4375 28.125ZM18.75 15C18.75 15.2486 18.6512 15.4871 18.4754 15.6629C18.2996 15.8387 18.0611 15.9375 17.8125 15.9375H6.95059L10.9762 19.9612C11.0634 20.0484 11.1325 20.1519 11.1797 20.2658C11.2269 20.3797 11.2512 20.5017 11.2512 20.625C11.2512 20.7483 11.2269 20.8703 11.1797 20.9842C11.1325 21.0981 11.0634 21.2016 10.9762 21.2888C10.8891 21.3759 10.7856 21.4451 10.6717 21.4922C10.5578 21.5394 10.4357 21.5637 10.3125 21.5637C10.1892 21.5637 10.0671 21.5394 9.95325 21.4922C9.83936 21.4451 9.73588 21.3759 9.64872 21.2888L4.02372 15.6638C3.93641 15.5767 3.86714 15.4732 3.81988 15.3593C3.77262 15.2454 3.74829 15.1233 3.74829 15C3.74829 14.8767 3.77262 14.7546 3.81988 14.6407C3.86714 14.5268 3.93641 14.4233 4.02372 14.3362L9.64872 8.71125C9.82475 8.53521 10.0635 8.43632 10.3125 8.43632C10.5614 8.43632 10.8002 8.53521 10.9762 8.71125C11.1523 8.88729 11.2512 9.12605 11.2512 9.375C11.2512 9.62395 11.1523 9.86271 10.9762 10.0388L6.95059 14.0625H17.8125C18.0611 14.0625 18.2996 14.1613 18.4754 14.3371C18.6512 14.5129 18.75 14.7514 18.75 15Z" fill="#222222"/>
</svg>
