<svg width="110" height="110" viewBox="0 0 110 110" fill="none" xmlns="http://www.w3.org/2000/svg">
<path d="M63.3875 87.0833C62.7028 87.0856 62.0262 86.9345 61.4076 86.641C60.7889 86.3476 60.2439 85.9192 59.8125 85.3875L37.675 57.8875C37.0009 57.0674 36.6323 56.0387 36.6323 54.977C36.6323 53.9154 37.0009 52.8867 37.675 52.0666L60.5916 24.5666C61.3696 23.6306 62.4875 23.042 63.6995 22.9303C64.9114 22.8185 66.1182 23.1928 67.0541 23.9708C67.9901 24.7488 68.5787 25.8667 68.6905 27.0786C68.8022 28.2906 68.4279 29.4973 67.65 30.4333L47.1625 55L66.9625 79.5666C67.5229 80.2394 67.879 81.0586 67.9884 81.9274C68.0979 82.7962 67.9562 83.6781 67.5801 84.4688C67.204 85.2596 66.6092 85.9261 65.8662 86.3894C65.1232 86.8527 64.263 87.0935 63.3875 87.0833Z" fill="#222222"/>
</svg>
