<svg width="252" height="252" viewBox="0 0 252 252" fill="none" xmlns="http://www.w3.org/2000/svg">
<path d="M126 0C105.646 0 93.4629 3.10154 85.7188 6.96877C81.8419 8.90723 79.0892 10.9426 77.238 13.0265C75.9669 14.5749 74.9435 16.3111 74.2043 18.1731C73.9004 18.9515 73.6984 19.7659 73.6034 20.5962L68.4471 86.9303C68.3792 87.3374 68.5149 87.9965 68.4471 88.4423L67.8462 95.1106C67.7897 95.7134 67.7897 96.3202 67.8462 96.9231C67.8462 128.908 94.0154 155.077 126 155.077C157.985 155.077 184.154 128.908 184.154 96.9231V95.4111C184.155 95.3109 184.155 95.2108 184.154 95.1106L178.397 20.5962C178.302 19.7659 178.1 18.9515 177.796 18.1731C177.796 18.1731 176.623 15.1103 174.762 13.0265C172.911 10.9329 170.158 8.89754 166.281 6.96877C158.537 3.09185 146.354 0 126 0ZM126 155.077C62.0308 155.077 9.69232 185.181 9.69232 212.32V252H242.308V212.32C242.308 186.538 194.99 158.14 135.392 155.377C132.266 155.171 129.133 155.071 126 155.077V155.077ZM126 19.3846C144.415 19.3846 153.613 22.2923 157.5 24.2308C158.799 24.8802 158.954 25.1322 159.322 25.4423L163.257 75.1154C154.34 75.6582 142.186 77.5385 126 77.5385C109.814 77.5385 97.6694 75.6582 88.7428 75.1154L92.6779 25.4423C93.0365 25.1322 93.2012 24.8802 94.5 24.2308C98.3866 22.2923 107.585 19.3846 126 19.3846V19.3846ZM118.12 29.0769V40.5914H106.615V56.3414H118.13V67.8462H133.87V56.3317H145.385V40.5914H133.87V29.0769H118.13H118.12ZM96.9231 176.885L121.764 232.615H29.0769V212.32C29.0769 205.099 53.7923 183.95 96.9231 176.885ZM155.077 176.885C198.208 183.96 222.923 205.099 222.923 212.32V232.615H130.236L155.077 176.885Z" fill="#222222"/>
</svg>
