<svg width="80" height="80" viewBox="0 0 80 80" fill="none" xmlns="http://www.w3.org/2000/svg">
<circle cx="40" cy="40" r="40" fill="white"/>
<path fill-rule="evenodd" clip-rule="evenodd" d="M23.6875 43.7746C26.7551 48.4044 31.9479 53.5148 40.0007 58.8718C48.0535 53.5148 53.2462 48.4044 56.3138 43.7746H50.0011C49.7514 43.7746 49.5075 43.6993 49.3008 43.5585C49.094 43.4177 48.9339 43.2178 48.841 42.9846L45.1984 33.8206L41.2032 47.8936C41.1318 48.146 40.9837 48.3696 40.7798 48.5331C40.5758 48.6966 40.3261 48.7918 40.0657 48.8054C39.8053 48.819 39.5472 48.7503 39.3275 48.6089C39.1079 48.4675 38.9376 48.2605 38.8406 48.0169L34.723 37.6553L31.0403 43.216C30.926 43.3881 30.7713 43.529 30.5898 43.6265C30.4084 43.7239 30.2059 43.7748 30.0003 43.7746H23.6875ZM22.1975 41.2584C13.9346 25.3561 31.0253 16.0966 39.5607 24.0049C39.7107 24.1433 39.8582 24.2868 40.0007 24.4352C40.1417 24.2869 40.2885 24.1442 40.4407 24.0075C48.976 16.0966 66.0667 25.3561 57.8014 41.2584H50.8436L46.1584 29.4676C46.0614 29.224 45.8912 29.017 45.6715 28.8756C45.4518 28.7342 45.1937 28.6655 44.9333 28.6791C44.6729 28.6927 44.4233 28.7879 44.2193 28.9514C44.0153 29.1149 43.8673 29.3385 43.7958 29.5909L39.8032 43.6639L36.1605 34.5C36.0757 34.2874 35.9348 34.1021 35.753 33.9642C35.5713 33.8263 35.3555 33.741 35.1291 33.7174C34.9027 33.6939 34.6742 33.733 34.4682 33.8305C34.2623 33.9281 34.0867 34.0804 33.9604 34.271L29.3303 41.2584H22.2H22.1975Z" fill="#699BF7"/>
</svg>
