<svg width="246" height="219" viewBox="0 0 246 219" fill="none" xmlns="http://www.w3.org/2000/svg">
<g clip-path="url(#clip0_84_16)">
<path d="M232.333 41.0625H177.667V13.6875C177.667 6.1166 171.559 0 164 0H82C74.4406 0 68.3333 6.1166 68.3333 13.6875V41.0625H13.6667C6.10729 41.0625 0 47.1791 0 54.75V212.156C0 215.92 3.075 219 6.83333 219H239.167C242.925 219 246 215.92 246 212.156V54.75C246 47.1791 239.893 41.0625 232.333 41.0625ZM68.3333 186.492C68.3333 189.315 66.0271 191.625 63.2083 191.625H46.125C43.3063 191.625 41 189.315 41 186.492V169.383C41 166.56 43.3063 164.25 46.125 164.25H63.2083C66.0271 164.25 68.3333 166.56 68.3333 169.383V186.492ZM68.3333 131.742C68.3333 134.565 66.0271 136.875 63.2083 136.875H46.125C43.3063 136.875 41 134.565 41 131.742V114.633C41 111.81 43.3063 109.5 46.125 109.5H63.2083C66.0271 109.5 68.3333 111.81 68.3333 114.633V131.742ZM136.667 186.492C136.667 189.315 134.36 191.625 131.542 191.625H114.458C111.64 191.625 109.333 189.315 109.333 186.492V169.383C109.333 166.56 111.64 164.25 114.458 164.25H131.542C134.36 164.25 136.667 166.56 136.667 169.383V186.492ZM136.667 131.742C136.667 134.565 134.36 136.875 131.542 136.875H114.458C111.64 136.875 109.333 134.565 109.333 131.742V114.633C109.333 111.81 111.64 109.5 114.458 109.5H131.542C134.36 109.5 136.667 111.81 136.667 114.633V131.742ZM143.5 59.0273C143.5 60.4389 142.347 61.5938 140.938 61.5938H129.833V72.7148C129.833 74.1264 128.68 75.2812 127.271 75.2812H118.729C117.32 75.2812 116.167 74.1264 116.167 72.7148V61.5938H105.063C103.653 61.5938 102.5 60.4389 102.5 59.0273V50.4727C102.5 49.0611 103.653 47.9062 105.063 47.9062H116.167V36.7852C116.167 35.3736 117.32 34.2188 118.729 34.2188H127.271C128.68 34.2188 129.833 35.3736 129.833 36.7852V47.9062H140.938C142.347 47.9062 143.5 49.0611 143.5 50.4727V59.0273ZM205 186.492C205 189.315 202.694 191.625 199.875 191.625H182.792C179.973 191.625 177.667 189.315 177.667 186.492V169.383C177.667 166.56 179.973 164.25 182.792 164.25H199.875C202.694 164.25 205 166.56 205 169.383V186.492ZM205 131.742C205 134.565 202.694 136.875 199.875 136.875H182.792C179.973 136.875 177.667 134.565 177.667 131.742V114.633C177.667 111.81 179.973 109.5 182.792 109.5H199.875C202.694 109.5 205 111.81 205 114.633V131.742Z" fill="#222222"/>
</g>
<defs>
<clipPath id="clip0_84_16">
<rect width="246" height="219" fill="white"/>
</clipPath>
</defs>
</svg>
