<svg width="250" height="261" viewBox="0 0 250 261" fill="none" xmlns="http://www.w3.org/2000/svg">
<g clip-path="url(#clip0_84_6)">
<path d="M240.989 214.02L161.076 91.0129V32.2117H179.642V0H66.2828V32.2444H85.0002V91.0455L4.93501 214.02C1.94126 218.601 0.240651 223.906 0.0130915 229.374C-0.214468 234.842 1.03948 240.27 3.64229 245.084C6.24509 249.898 10.1 253.918 14.7991 256.72C19.4983 259.522 24.8669 261 30.3372 261H215.489C220.97 260.991 226.346 259.503 231.05 256.691C235.755 253.879 239.613 249.848 242.218 245.024C244.823 240.2 246.078 234.762 245.85 229.284C245.623 223.806 243.921 218.491 240.924 213.9L241 214.02H240.989ZM231.152 239.054C229.629 241.862 227.378 244.206 224.634 245.841C221.891 247.475 218.758 248.339 215.565 248.342H30.3372C27.1304 248.346 23.9821 247.483 21.2261 245.842C18.47 244.202 16.2089 241.846 14.6824 239.025C13.1559 236.203 12.4209 233.021 12.5553 229.816C12.6897 226.61 13.6885 223.501 15.4459 220.817L15.4024 220.882L97.4567 94.7321V32.19H148.392V94.7647L230.359 220.915C232.207 223.644 233.315 227.016 233.315 230.648C233.315 233.747 232.511 236.662 231.098 239.185L231.142 239.098L231.152 239.054Z" fill="#222222"/>
<path d="M156.652 134.317H89.3587L27.8913 228.908C27.5727 229.385 27.392 229.942 27.369 230.515C27.346 231.089 27.4815 231.658 27.7608 232.159L27.75 232.149C28.2934 233.095 29.2934 233.726 30.4456 233.736H215.576C216.123 233.736 216.661 233.59 217.133 233.313C217.604 233.036 217.994 232.638 218.261 232.159L218.272 232.149C218.552 231.649 218.687 231.081 218.662 230.508C218.637 229.936 218.453 229.381 218.13 228.908L218.141 228.919L156.652 134.317Z" fill="#222222"/>
</g>
<defs>
<clipPath id="clip0_84_6">
<rect width="250" height="261" fill="white"/>
</clipPath>
</defs>
</svg>
