<svg width="80" height="80" viewBox="0 0 80 80" fill="none" xmlns="http://www.w3.org/2000/svg">
<circle cx="40" cy="40" r="40" fill="white"/>
<path d="M33.9993 45.834V47C33.9993 49.3869 34.9475 51.6761 36.6352 53.364C38.3229 55.0518 40.612 56 42.9988 56C45.3857 56 47.6747 55.0518 49.3625 53.364C51.0502 51.6761 51.9984 49.3869 51.9984 47V43.66C50.6635 43.1882 49.5383 42.2596 48.8218 41.0384C48.1053 39.8172 47.8436 38.382 48.083 36.9864C48.3223 35.5909 49.0473 34.3249 50.1297 33.4123C51.2122 32.4996 52.5825 31.999 53.9983 31.999C55.4141 31.999 56.7844 32.4996 57.8668 33.4123C58.9493 34.3249 59.6743 35.5909 59.9136 36.9864C60.153 38.382 59.8912 39.8172 59.1747 41.0384C58.4583 42.2596 57.3331 43.1882 55.9982 43.66V47C55.9982 50.4478 54.6286 53.7544 52.1908 56.1924C49.7529 58.6304 46.4465 60 42.9988 60C39.5512 60 36.2448 58.6304 33.8069 56.1924C31.3691 53.7544 29.9995 50.4478 29.9995 47V45.834C27.2035 45.3606 24.6654 43.9124 22.8351 41.7463C21.0047 39.5802 20.0004 36.8359 20 34V24C20 22.9391 20.4214 21.9217 21.1715 21.1716C21.9216 20.4214 22.939 20 23.9998 20H25.9997C26.5301 20 27.0388 20.2107 27.4138 20.5858C27.7889 20.9609 27.9996 21.4696 27.9996 22C27.9996 22.5304 27.7889 23.0391 27.4138 23.4142C27.0388 23.7893 26.5301 24 25.9997 24H23.9998V34C23.9998 36.1217 24.8426 38.1566 26.3428 39.6569C27.843 41.1571 29.8778 42 31.9994 42C34.121 42 36.1558 41.1571 37.656 39.6569C39.1562 38.1566 39.999 36.1217 39.999 34V24H37.9991C37.4687 24 36.96 23.7893 36.585 23.4142C36.2099 23.0391 35.9992 22.5304 35.9992 22C35.9992 21.4696 36.2099 20.9609 36.585 20.5858C36.96 20.2107 37.4687 20 37.9991 20H39.999C41.0598 20 42.0772 20.4214 42.8273 21.1716C43.5774 21.9217 43.9988 22.9391 43.9988 24V34C43.9984 36.8359 42.9941 39.5802 41.1637 41.7463C39.3334 43.9124 36.7953 45.3606 33.9993 45.834ZM53.9983 40C54.5287 40 55.0374 39.7893 55.4124 39.4142C55.7875 39.0391 55.9982 38.5304 55.9982 38C55.9982 37.4696 55.7875 36.9609 55.4124 36.5858C55.0374 36.2107 54.5287 36 53.9983 36C53.4679 36 52.9592 36.2107 52.5841 36.5858C52.2091 36.9609 51.9984 37.4696 51.9984 38C51.9984 38.5304 52.2091 39.0391 52.5841 39.4142C52.9592 39.7893 53.4679 40 53.9983 40Z" fill="#181A2A"/>
</svg>
